<svg xmlns="http://www.w3.org/2000/svg" xmlns:xlink="http://www.w3.org/1999/xlink" viewBox="0 0 822.94 180.15"><defs><filter id="b" x="62.42" y="-8642" width="177.68" height="32766" filterUnits="userSpaceOnUse" color-interpolation-filters="sRGB"><feFlood flood-color="#fff" result="bg"/><feBlend in="SourceGraphic" in2="bg"/></filter><mask id="a" x="62.42" y="-8642" width="177.68" height="32766" maskUnits="userSpaceOnUse"><g filter="url(#b)"/></mask><linearGradient id="c" x1="87.02" y1="460.63" x2="218.38" y2="552.61" gradientUnits="userSpaceOnUse"><stop offset="0.78"/><stop offset="0.98" stop-color="#fff"/></linearGradient><linearGradient id="d" x1="109.81" y1="367.15" x2="138.81" y2="531.59" gradientUnits="userSpaceOnUse"><stop offset="0.81" stop-color="#c90c0f"/><stop offset="0.98" stop-color="#500800"/></linearGradient><filter id="f" x="62.42" y="476.63" width="177.68" height="59.03" filterUnits="userSpaceOnUse" color-interpolation-filters="sRGB"><feFlood flood-color="#fff" result="bg"/><feBlend in="SourceGraphic" in2="bg"/></filter><mask id="e" x="23.89" y="116.71" width="177.68" height="59.03" maskUnits="userSpaceOnUse"><g filter="url(#f)"><g transform="translate(-38.53 -359.92)"><g mask="url(#a)"><path d="M229,481.87c-.12.13-.22.27-.34.4l-1.69,2-10.52-3.72a31.35,31.35,0,0,1-6.25,3.61l-.63,3.39c2.78,7,5.18,13.87,7.1,20.43a268.62,268.62,0,0,1-48.51,6.77c-5.83.3-11.69.46-17.4.46s-11.57-.16-17.4-.46a268.49,268.49,0,0,1-48.51-6.77,243.21,243.21,0,0,1,9.25-25.69l-3.31-3.31a7.64,7.64,0,0,0-5.33-2.3,6.21,6.21,0,0,0-1.29.13,39.31,39.31,0,0,1-7.66.75l-1.32,0c-6.49,16-10.82,31-12.8,44.12,18.46,7.18,43.37,12.13,71.38,13.6,5.7.3,11.53.46,17.46.46s11.75-.16,17.46-.46c28-1.47,52.91-6.42,71.37-13.6C238.3,509.73,234.56,496.22,229,481.87Z" fill="url(#c)" style="mix-blend-mode:multiply"/></g></g></g></mask><linearGradient id="g" x1="87.02" y1="460.63" x2="218.38" y2="552.61" gradientUnits="userSpaceOnUse"><stop offset="0.78" stop-color="#fff"/><stop offset="0.98" stop-color="#fff"/></linearGradient></defs><path d="M324.28,490.63V468.72h7.86a11.46,11.46,0,0,1,4.72.88,6.73,6.73,0,0,1,3,2.52,7.95,7.95,0,0,1,0,7.93,6.76,6.76,0,0,1-3,2.54,11.63,11.63,0,0,1-4.72.87h-7l.72-.75v7.92Zm1.6-7.82-.72-.79h7a8.06,8.06,0,0,0,5.36-1.55,5.39,5.39,0,0,0,1.83-4.36,5.44,5.44,0,0,0-1.83-4.4,8.12,8.12,0,0,0-5.36-1.55h-7l.72-.78Z" transform="translate(-38.53 -359.92)" fill="#fff"/><path d="M345.34,490.63V474.29h1.51v4.48l-.16-.5a5.76,5.76,0,0,1,2.32-3,7.27,7.27,0,0,1,4.07-1.06v1.53h-.19l-.19,0a5.42,5.42,0,0,0-4.26,1.71,6.82,6.82,0,0,0-1.53,4.74v8.51Z" transform="translate(-38.53 -359.92)" fill="#fff"/><path d="M363.87,490.76a8.72,8.72,0,0,1-4.36-1.07,7.72,7.72,0,0,1-3-2.94,8.44,8.44,0,0,1-1.08-4.29,8.79,8.79,0,0,1,1-4.3,7.59,7.59,0,0,1,2.8-2.93,8.18,8.18,0,0,1,8,0,7.26,7.26,0,0,1,2.78,2.9,8.79,8.79,0,0,1,1,4.3,1.41,1.41,0,0,1,0,.2,1.79,1.79,0,0,0,0,.24H356.61v-1.22H370.2l-.63.59a6.87,6.87,0,0,0-.8-3.43,6.16,6.16,0,0,0-2.24-2.37,6.22,6.22,0,0,0-8.73,2.37,7.27,7.27,0,0,0-.81,3.46v.28a7.07,7.07,0,0,0,.89,3.56,6.27,6.27,0,0,0,2.46,2.41,7.3,7.3,0,0,0,3.56.86,7.5,7.5,0,0,0,2.93-.57,5.66,5.66,0,0,0,2.3-1.72l.91,1a6.74,6.74,0,0,1-2.68,2A8.94,8.94,0,0,1,363.87,490.76Z" transform="translate(-38.53 -359.92)" fill="#fff"/><path d="M383.9,474.17a7.51,7.51,0,0,1,3.49.76,5.47,5.47,0,0,1,2.32,2.32,8.07,8.07,0,0,1,.83,3.83v9.55H389v-9.42a5.77,5.77,0,0,0-1.39-4.19,5.18,5.18,0,0,0-3.9-1.44,6.72,6.72,0,0,0-3.31.78,5.22,5.22,0,0,0-2.15,2.19,7.21,7.21,0,0,0-.73,3.38v8.7h-1.57V474.29h1.5v4.54l-.21-.5a6.19,6.19,0,0,1,2.47-3.05A7.62,7.62,0,0,1,383.9,474.17Z" transform="translate(-38.53 -359.92)" fill="#fff"/><path d="M403.28,490.76a8.12,8.12,0,0,1-4.12-1.05,7.61,7.61,0,0,1-2.89-2.93,9.28,9.28,0,0,1,0-8.65,7.62,7.62,0,0,1,2.89-2.91,8.12,8.12,0,0,1,4.12-1.05,7.61,7.61,0,0,1,3.89,1,7.28,7.28,0,0,1,2.76,2.85,10.24,10.24,0,0,1,0,8.85,7,7,0,0,1-2.74,2.88A7.65,7.65,0,0,1,403.28,490.76Zm.09-1.41a6.61,6.61,0,0,0,3.36-.86,6.17,6.17,0,0,0,2.35-2.43,8,8,0,0,0,0-7.21,6.06,6.06,0,0,0-2.35-2.41,7,7,0,0,0-6.72,0,6.06,6.06,0,0,0-2.35,2.41,8,8,0,0,0,0,7.21,6.17,6.17,0,0,0,2.35,2.43A6.61,6.61,0,0,0,403.37,489.35Zm6.6,1.28v-5.35l.29-2.85-.32-2.85V467.41h1.57v23.22Z" transform="translate(-38.53 -359.92)" fill="#fff"/><path d="M418.11,490.63V474.29h1.5v4.48l-.15-.5a5.79,5.79,0,0,1,2.31-3,7.29,7.29,0,0,1,4.07-1.06v1.53h-.19l-.18,0a5.42,5.42,0,0,0-4.26,1.71,6.82,6.82,0,0,0-1.53,4.74v8.51Z" transform="translate(-38.53 -359.92)" fill="#fff"/><path d="M436.64,490.76a8.79,8.79,0,0,1-4.37-1.07,7.77,7.77,0,0,1-3-2.94,8.44,8.44,0,0,1-1.08-4.29,8.79,8.79,0,0,1,1-4.3,7.52,7.52,0,0,1,2.8-2.93,7.64,7.64,0,0,1,4-1.06,7.76,7.76,0,0,1,4,1,7.4,7.4,0,0,1,2.78,2.9,8.79,8.79,0,0,1,1,4.3,1.5,1.5,0,0,1,0,.2,1.85,1.85,0,0,0,0,.24H429.38v-1.22H443l-.62.59a6.87,6.87,0,0,0-.8-3.43,6.24,6.24,0,0,0-2.24-2.37,6.22,6.22,0,0,0-8.73,2.37,7.16,7.16,0,0,0-.82,3.46v.28a7,7,0,0,0,.9,3.56,6.31,6.31,0,0,0,2.45,2.41,7.34,7.34,0,0,0,3.57.86,7.54,7.54,0,0,0,2.93-.57,5.79,5.79,0,0,0,2.3-1.72l.9,1a6.71,6.71,0,0,1-2.67,2A9,9,0,0,1,436.64,490.76Z" transform="translate(-38.53 -359.92)" fill="#fff"/><path d="M460.86,490.76a11.78,11.78,0,0,1-3.8-.6,7.44,7.44,0,0,1-2.74-1.5l.72-1.25a8.27,8.27,0,0,0,2.5,1.39,9.6,9.6,0,0,0,3.38.58,6.21,6.21,0,0,0,3.7-.85,2.64,2.64,0,0,0,1.13-2.22,2.16,2.16,0,0,0-.58-1.58,4,4,0,0,0-1.55-.89,16.61,16.61,0,0,0-2.13-.52c-.77-.13-1.55-.28-2.32-.45a9.88,9.88,0,0,1-2.13-.72,3.92,3.92,0,0,1-1.54-1.3,3.76,3.76,0,0,1-.58-2.21,4,4,0,0,1,.68-2.25,4.78,4.78,0,0,1,2.07-1.61,8.47,8.47,0,0,1,3.44-.61,11.09,11.09,0,0,1,3.09.44,7.76,7.76,0,0,1,2.52,1.15L466,477a6.51,6.51,0,0,0-2.32-1.13,10,10,0,0,0-2.6-.35,5.66,5.66,0,0,0-3.49.88,2.7,2.7,0,0,0-1.11,2.19,2.29,2.29,0,0,0,.58,1.65,3.72,3.72,0,0,0,1.55.93,14.7,14.7,0,0,0,2.13.54q1.15.19,2.31.45a10,10,0,0,1,2.13.7,4,4,0,0,1,1.55,1.26,3.53,3.53,0,0,1,.58,2.14,3.87,3.87,0,0,1-.74,2.35,4.68,4.68,0,0,1-2.17,1.56A9.65,9.65,0,0,1,460.86,490.76Z" transform="translate(-38.53 -359.92)" fill="#fff"/><path d="M478.08,490.76a8.15,8.15,0,0,1-4.18-1.07,7.9,7.9,0,0,1-2.91-2.94,9.08,9.08,0,0,1,0-8.59,7.94,7.94,0,0,1,2.91-2.93,8.14,8.14,0,0,1,4.18-1.06,8.23,8.23,0,0,1,4.19,1.06,7.8,7.8,0,0,1,2.91,2.93,9.16,9.16,0,0,1,0,8.59,7.75,7.75,0,0,1-2.91,2.94A8.24,8.24,0,0,1,478.08,490.76Zm0-1.41a6.72,6.72,0,0,0,3.38-.86,6.08,6.08,0,0,0,2.34-2.43,8.07,8.07,0,0,0,0-7.21,6,6,0,0,0-2.34-2.41,6.61,6.61,0,0,0-3.38-.86,6.53,6.53,0,0,0-3.37.86,6.19,6.19,0,0,0-2.35,2.41,8,8,0,0,0,0,7.21,6.31,6.31,0,0,0,2.35,2.43A6.63,6.63,0,0,0,478.08,489.35Z" transform="translate(-38.53 -359.92)" fill="#fff"/><path d="M491.88,470.32a1.24,1.24,0,0,1-.91-.38,1.19,1.19,0,0,1-.37-.87,1.28,1.28,0,0,1,1.28-1.29,1.25,1.25,0,0,1,.92.36,1.21,1.21,0,0,1,.36.89,1.26,1.26,0,0,1-.36.91A1.23,1.23,0,0,1,491.88,470.32Zm-.78,20.31V474.29h1.56v16.34Z" transform="translate(-38.53 -359.92)" fill="#fff"/><path d="M507.25,474.17a7.5,7.5,0,0,1,3.48.76,5.41,5.41,0,0,1,2.32,2.32,8.07,8.07,0,0,1,.83,3.83v9.55h-1.56v-9.42a5.78,5.78,0,0,0-1.4-4.19,5.15,5.15,0,0,0-3.89-1.44,6.73,6.73,0,0,0-3.32.78,5.22,5.22,0,0,0-2.15,2.19,7.21,7.21,0,0,0-.73,3.38v8.7h-1.57V474.29h1.51v4.54l-.22-.5a6.19,6.19,0,0,1,2.47-3.05A7.66,7.66,0,0,1,507.25,474.17Z" transform="translate(-38.53 -359.92)" fill="#fff"/><path d="M534.66,490.76a8.11,8.11,0,0,1-4.11-1.05,7.7,7.7,0,0,1-2.9-2.93,9.35,9.35,0,0,1,0-8.65,7.72,7.72,0,0,1,2.9-2.91,8.11,8.11,0,0,1,4.11-1.05,7.65,7.65,0,0,1,3.9,1,7.26,7.26,0,0,1,2.75,2.85,9,9,0,0,1,1,4.44,9.2,9.2,0,0,1-1,4.41,7,7,0,0,1-2.74,2.88A7.72,7.72,0,0,1,534.66,490.76Zm.09-1.41a6.63,6.63,0,0,0,3.37-.86,6.31,6.31,0,0,0,2.35-2.43,8,8,0,0,0,0-7.21,6.19,6.19,0,0,0-2.35-2.41,7,7,0,0,0-6.73,0,6.19,6.19,0,0,0-2.35,2.41,8,8,0,0,0,0,7.21,6.31,6.31,0,0,0,2.35,2.43A6.61,6.61,0,0,0,534.75,489.35Zm6.61,1.28v-5.35l.28-2.85-.31-2.85V467.41h1.56v23.22Z" transform="translate(-38.53 -359.92)" fill="#fff"/><path d="M556.13,490.76a8.79,8.79,0,0,1-4.37-1.07,7.77,7.77,0,0,1-3-2.94,8.44,8.44,0,0,1-1.08-4.29,8.79,8.79,0,0,1,1-4.3,7.55,7.55,0,0,1,6.81-4,7.75,7.75,0,0,1,4,1,7.33,7.33,0,0,1,2.78,2.9,8.79,8.79,0,0,1,1,4.3,1.5,1.5,0,0,1,0,.2,1.85,1.85,0,0,0,0,.24H548.87v-1.22h13.58l-.62.59a6.87,6.87,0,0,0-.8-3.43,6.16,6.16,0,0,0-2.24-2.37,6.22,6.22,0,0,0-8.73,2.37,7.27,7.27,0,0,0-.81,3.46v.28a7,7,0,0,0,.89,3.56,6.31,6.31,0,0,0,2.45,2.41,7.36,7.36,0,0,0,3.57.86,7.5,7.5,0,0,0,2.93-.57,5.73,5.73,0,0,0,2.3-1.72l.91,1a6.74,6.74,0,0,1-2.68,2A8.94,8.94,0,0,1,556.13,490.76Z" transform="translate(-38.53 -359.92)" fill="#fff"/><path d="M580.35,490.63,573,474.29h1.66l6.88,15.46h-.75l7-15.46h1.6L582,490.63Z" transform="translate(-38.53 -359.92)" fill="#fff"/><path d="M598.66,490.76a8.14,8.14,0,0,1-4.17-1.07,7.82,7.82,0,0,1-2.91-2.94,9.08,9.08,0,0,1,0-8.59,7.87,7.87,0,0,1,2.91-2.93,8.13,8.13,0,0,1,4.17-1.06,8.24,8.24,0,0,1,4.2,1.06,7.8,7.8,0,0,1,2.91,2.93,9.23,9.23,0,0,1,0,8.59,7.75,7.75,0,0,1-2.91,2.94A8.25,8.25,0,0,1,598.66,490.76Zm0-1.41a6.69,6.69,0,0,0,3.38-.86,6,6,0,0,0,2.35-2.43,8.07,8.07,0,0,0,0-7.21,5.93,5.93,0,0,0-2.35-2.41,6.59,6.59,0,0,0-3.38-.86,6.52,6.52,0,0,0-3.36.86,6.19,6.19,0,0,0-2.35,2.41,8,8,0,0,0,0,7.21,6.31,6.31,0,0,0,2.35,2.43A6.61,6.61,0,0,0,598.66,489.35Z" transform="translate(-38.53 -359.92)" fill="#fff"/><path d="M609,475.64v-1.35h9.77v1.35Zm7.45,15.12a4.37,4.37,0,0,1-3.3-1.19,4.53,4.53,0,0,1-1.14-3.26V470.73h1.56v15.42a3.41,3.41,0,0,0,.78,2.41,2.93,2.93,0,0,0,2.26.85,3.61,3.61,0,0,0,2.53-.91l.66,1.1a3.81,3.81,0,0,1-1.52.87A5.94,5.94,0,0,1,616.44,490.76Z" transform="translate(-38.53 -359.92)" fill="#fff"/><path d="M624.14,490.63V474.29h1.5v4.48l-.15-.5a5.74,5.74,0,0,1,2.31-3,7.29,7.29,0,0,1,4.07-1.06v1.53h-.19l-.18,0a5.42,5.42,0,0,0-4.26,1.71,6.82,6.82,0,0,0-1.53,4.74v8.51Z" transform="translate(-38.53 -359.92)" fill="#fff"/><path d="M642.67,490.76a8.76,8.76,0,0,1-4.37-1.07,7.77,7.77,0,0,1-3-2.94,8.44,8.44,0,0,1-1.08-4.29,8.79,8.79,0,0,1,1-4.3,7.52,7.52,0,0,1,2.8-2.93,7.64,7.64,0,0,1,4-1.06,7.73,7.73,0,0,1,4,1,7.35,7.35,0,0,1,2.79,2.9,8.79,8.79,0,0,1,1,4.3,1.5,1.5,0,0,1,0,.2,1.85,1.85,0,0,0,0,.24H635.41v-1.22H649l-.63.59a6.76,6.76,0,0,0-.79-3.43,6.24,6.24,0,0,0-2.24-2.37,6.51,6.51,0,0,0-6.5,0,6,6,0,0,0-2.23,2.37,7.16,7.16,0,0,0-.82,3.46v.28a7.07,7.07,0,0,0,.89,3.56,6.4,6.4,0,0,0,2.46,2.41,7.31,7.31,0,0,0,3.57.86,7.54,7.54,0,0,0,2.93-.57,5.79,5.79,0,0,0,2.3-1.72l.9,1a6.78,6.78,0,0,1-2.67,2A9,9,0,0,1,642.67,490.76Z" transform="translate(-38.53 -359.92)" fill="#fff"/><path d="M666.89,490.63l-7.35-16.34h1.66l6.88,15.46h-.75l6.95-15.46h1.59l-7.38,16.34Z" transform="translate(-38.53 -359.92)" fill="#fff"/><path d="M685.45,490.76a8.72,8.72,0,0,1-4.36-1.07,7.72,7.72,0,0,1-3-2.94,8.44,8.44,0,0,1-1.08-4.29,8.79,8.79,0,0,1,1-4.3,7.55,7.55,0,0,1,6.81-4,7.75,7.75,0,0,1,4,1,7.26,7.26,0,0,1,2.78,2.9,8.79,8.79,0,0,1,1,4.3,1.5,1.5,0,0,1,0,.2,1.85,1.85,0,0,0,0,.24H678.19v-1.22h13.58l-.62.59a6.87,6.87,0,0,0-.8-3.43,6.16,6.16,0,0,0-2.24-2.37,6.22,6.22,0,0,0-8.73,2.37,7.27,7.27,0,0,0-.81,3.46v.28a7,7,0,0,0,.89,3.56,6.31,6.31,0,0,0,2.45,2.41,7.36,7.36,0,0,0,3.57.86,7.5,7.5,0,0,0,2.93-.57,5.73,5.73,0,0,0,2.3-1.72l.91,1a6.74,6.74,0,0,1-2.68,2A8.94,8.94,0,0,1,685.45,490.76Zm-2.38-19.13,4.35-3.69h2.26l-4.92,3.69Z" transform="translate(-38.53 -359.92)" fill="#fff"/><path d="M705.48,474.17a7.51,7.51,0,0,1,3.49.76,5.52,5.52,0,0,1,2.32,2.32,8.07,8.07,0,0,1,.83,3.83v9.55h-1.57v-9.42a5.77,5.77,0,0,0-1.39-4.19,5.18,5.18,0,0,0-3.9-1.44,6.69,6.69,0,0,0-3.31.78,5.22,5.22,0,0,0-2.15,2.19,7.21,7.21,0,0,0-.73,3.38v8.7H697.5V467.41h1.57v11.42l-.29-.5a6.26,6.26,0,0,1,2.48-3.05A7.6,7.6,0,0,1,705.48,474.17Z" transform="translate(-38.53 -359.92)" fill="#fff"/><path d="M719.35,470.32a1.24,1.24,0,0,1-.91-.38,1.2,1.2,0,0,1-.38-.87,1.3,1.3,0,0,1,1.29-1.29,1.25,1.25,0,0,1,.92.36,1.21,1.21,0,0,1,.36.89,1.26,1.26,0,0,1-.36.91A1.23,1.23,0,0,1,719.35,470.32Zm-.79,20.31V474.29h1.57v16.34Z" transform="translate(-38.53 -359.92)" fill="#fff"/><path d="M733.21,490.76a8.37,8.37,0,0,1-4.24-1.07,7.83,7.83,0,0,1-2.94-2.94,9.12,9.12,0,0,1,0-8.61,7.71,7.71,0,0,1,2.94-2.92,8.47,8.47,0,0,1,4.24-1.05,8.34,8.34,0,0,1,3.58.75,6.27,6.27,0,0,1,2.62,2.25l-1.16.85a5.27,5.27,0,0,0-2.19-1.85,7.23,7.23,0,0,0-6.28.27,6,6,0,0,0-2.37,2.41,7.95,7.95,0,0,0,0,7.23,6.17,6.17,0,0,0,2.37,2.41,6.9,6.9,0,0,0,3.43.86,6.81,6.81,0,0,0,2.85-.6,5.25,5.25,0,0,0,2.19-1.84l1.16.84a6.27,6.27,0,0,1-2.62,2.25A8.2,8.2,0,0,1,733.21,490.76Z" transform="translate(-38.53 -359.92)" fill="#fff"/><path d="M750.74,490.76a8,8,0,0,1-3.63-.77,5.31,5.31,0,0,1-2.37-2.32,8.07,8.07,0,0,1-.83-3.83v-9.55h1.57v9.42a5.76,5.76,0,0,0,1.41,4.2,5.3,5.3,0,0,0,4,1.44,6.2,6.2,0,0,0,3.2-.79,5.22,5.22,0,0,0,2.06-2.2,7.38,7.38,0,0,0,.72-3.37v-8.7h1.57v16.34H756.9v-4.54l.22.53a6.12,6.12,0,0,1-2.39,3A7,7,0,0,1,750.74,490.76Z" transform="translate(-38.53 -359.92)" fill="#fff"/><path d="M765,490.63V467.41h1.57v23.22Z" transform="translate(-38.53 -359.92)" fill="#fff"/><path d="M779.84,490.76a8.72,8.72,0,0,1-4.36-1.07,7.72,7.72,0,0,1-3-2.94,8.44,8.44,0,0,1-1.08-4.29,8.79,8.79,0,0,1,1-4.3,7.59,7.59,0,0,1,2.8-2.93,8.18,8.18,0,0,1,8,0,7.26,7.26,0,0,1,2.78,2.9,8.79,8.79,0,0,1,1,4.3,1.41,1.41,0,0,1,0,.2,1.79,1.79,0,0,0,0,.24H772.58v-1.22h13.58l-.62.59a6.87,6.87,0,0,0-.8-3.43,6.16,6.16,0,0,0-2.24-2.37,6.22,6.22,0,0,0-8.73,2.37,7.27,7.27,0,0,0-.81,3.46v.28a7,7,0,0,0,.89,3.56,6.27,6.27,0,0,0,2.46,2.41,7.3,7.3,0,0,0,3.56.86,7.5,7.5,0,0,0,2.93-.57,5.66,5.66,0,0,0,2.3-1.72l.91,1a6.74,6.74,0,0,1-2.68,2A8.9,8.9,0,0,1,779.84,490.76Z" transform="translate(-38.53 -359.92)" fill="#fff"/><path d="M280.83,407.31H281l.6,0a5.12,5.12,0,0,1,.85.12c.25.07.57.16,1,.29a3.57,3.57,0,0,1,1,.47,6,6,0,0,1,.88.75,2.54,2.54,0,0,1,.65,1.09,10.92,10.92,0,0,1,.32,1.47,5.11,5.11,0,0,1-.13,1.91.41.41,0,0,0-.06.26L286,414l-.19.94s-.07.33-.19.87l-.06.32v.25l-.32,1.56a2.14,2.14,0,0,0-.12.63l-.13.56a.89.89,0,0,1,0,.19.89.89,0,0,0,0,.19l-.19.94a2,2,0,0,0-.12.44l-.07.43a1.26,1.26,0,0,0-.09.35,3.2,3.2,0,0,1-.06.34c0,.09,0,.2-.06.35a1.69,1.69,0,0,0,0,.34l-.06.13a2.31,2.31,0,0,1-.12.56l-.13.88a.71.71,0,0,0-.06.31l-.13.44a1.49,1.49,0,0,1,0,.22,1.34,1.34,0,0,0,0,.22v.12l-.12.38v.25a.59.59,0,0,0-.07.31l-.12.57a1.24,1.24,0,0,0-.07.25v.12l-.06.06v.13a1.24,1.24,0,0,0-.09.38,4.66,4.66,0,0,1-.28.87,9.2,9.2,0,0,1-.6,1.22,8.42,8.42,0,0,1-1,1.32,7.26,7.26,0,0,1-1.41,1.25,6.76,6.76,0,0,1-2,.88,9.79,9.79,0,0,1-2.66.34H262.85l-1.06,5.08-2.26,10.52a2.13,2.13,0,0,1-.72,1.13,1.86,1.86,0,0,1-1.22.43H250.7a1.79,1.79,0,0,1-1.5-.72,2,2,0,0,1-.38-1.66l4.39-20.41,1.12-5.27.19-.68.06-.44,1.13-5.08,1.19-5.82L251,407.31h7.71a.53.53,0,0,1,.18-.07.85.85,0,0,1,.22,0l.22,0Zm-5.7,11.15a1.4,1.4,0,0,0-.35-1.23,1.5,1.5,0,0,0-1.16-.53h-7.07l-1.19,5.58h7.83a1.41,1.41,0,0,0,1-.38,1.79,1.79,0,0,0,.53-.88Z" transform="translate(-38.53 -359.92)" fill="#fff"/><path d="M300.05,407.31a3,3,0,0,1,2.42,1.16,2.87,2.87,0,0,1,.59,2.66l-.75,3.69-2.38,11L295,448.71a3.49,3.49,0,0,1-.62,1.25,3.24,3.24,0,0,1-1.07.88,3,3,0,0,1-1.37.31h-4.45a3.14,3.14,0,0,1-3.07-3.82l5.13-24.05.26-.94,1.19-5.58,1.31-6.32-5.26-3.13h13Z" transform="translate(-38.53 -359.92)" fill="#fff"/><path d="M340.7,407.37A1.65,1.65,0,0,1,342,408a1.55,1.55,0,0,1,.34,1.44l-1.25,6a1.65,1.65,0,0,1-.6,1,1.7,1.7,0,0,1-1.09.38H320l-.37,1.75v.06l-.82,3.76h13.78a1.61,1.61,0,0,1,1.32.63,1.51,1.51,0,0,1,.31,1.38l-1.56,8.33a1.72,1.72,0,0,1-.6,1,1.61,1.61,0,0,1-1,.37H316.21l-.37,1.82-1.32,5.95h18.85a1.59,1.59,0,0,1,1.32.63,1.49,1.49,0,0,1,.31,1.37l-1.25,5.95a1.61,1.61,0,0,1-.59.94,1.65,1.65,0,0,1-1,.38H311.77a7.74,7.74,0,0,1-6.27-3,7.57,7.57,0,0,1-1.63-6.73L307.82,423l1.69-7.89a5.15,5.15,0,0,1,.19-.75l.69-3.38-5.95-3.57h14v.06a2.67,2.67,0,0,1,.5-.06Z" transform="translate(-38.53 -359.92)" fill="#fff"/><path d="M372.14,407.37a10.48,10.48,0,0,1,2.23.22,6,6,0,0,1,1.69.59,5.57,5.57,0,0,1,1.13.85,3.93,3.93,0,0,1,.72,1,6.45,6.45,0,0,1,.4,1,4.35,4.35,0,0,1,.19,1q0,.46,0,.81a4.91,4.91,0,0,1,0,.59c0,.17,0,.23,0,.19l-1.88,8a1.56,1.56,0,0,1-.56.91,1.6,1.6,0,0,1-1,.34h-8.39a1.56,1.56,0,0,1-1.25-.6,1.4,1.4,0,0,1-.31-1.34l.68-3.2v-.12h-7.57l-.38,2-5.32,22.36h7.7l1.19-5.07c0-.08.08-.19.13-.31a.83.83,0,0,1,.18-.32l.25-.25a1.12,1.12,0,0,1,.29-.19,1.69,1.69,0,0,1,.34-.09,2.43,2.43,0,0,1,.38,0h8.39a1.55,1.55,0,0,1,1.28.59,1.46,1.46,0,0,1,.28,1.35l-1.69,7.45a2.44,2.44,0,0,1-.12.66,9.23,9.23,0,0,1-.78,1.47,8.67,8.67,0,0,1-1.57,1.88,8.14,8.14,0,0,1-2.69,1.47,11.61,11.61,0,0,1-4,.66H346.4l-.81,0a10.55,10.55,0,0,1-1.79-.37,7.41,7.41,0,0,1-2.16-.94,4.34,4.34,0,0,1-1.56-4.8l4.19-18.41.88-3.82.5-2.19.5-2.13,1.82-7.89-5.45-3.26h29.62Z" transform="translate(-38.53 -359.92)" fill="#fff"/><path d="M415.8,407.37a1.61,1.61,0,0,1,1.28.63,1.56,1.56,0,0,1,.35,1.44l-1.26,6a1.63,1.63,0,0,1-.59,1,1.71,1.71,0,0,1-1.1.38H395.13l-.38,1.75v.06l-.81,3.76h13.78A1.59,1.59,0,0,1,409,423a1.52,1.52,0,0,1,.32,1.38l-1.57,8.33a1.66,1.66,0,0,1-.59,1,1.64,1.64,0,0,1-1,.37H391.31l-.38,1.82-1.31,5.95h18.85a1.62,1.62,0,0,1,1.32.63,1.52,1.52,0,0,1,.31,1.37l-1.25,5.95a1.67,1.67,0,0,1-.6.94,1.62,1.62,0,0,1-1,.38H386.86a7.72,7.72,0,0,1-6.26-3,7.57,7.57,0,0,1-1.63-6.73L382.92,423l1.69-7.89a5.11,5.11,0,0,1,.18-.75l.69-3.38-6-3.57h14v.06a2.86,2.86,0,0,1,.5-.06Z" transform="translate(-38.53 -359.92)" fill="#fff"/><path d="M444.36,407.31a7.13,7.13,0,0,1,3.22.65,4.35,4.35,0,0,1,1.79,1.48,5.06,5.06,0,0,1,.66,1.88,6.29,6.29,0,0,1,.09,1.5q-.06.44-.12.69l-.38,1.88a1.75,1.75,0,0,1-.31.72,1.79,1.79,0,0,1-.63.53,1.86,1.86,0,0,1-.81.19H423.31l3.45,1.81-.69,3.7h14.28l.84,0a9.68,9.68,0,0,1,1.82.41,7,7,0,0,1,2.19,1,4.33,4.33,0,0,1,1.44,2.19,6.65,6.65,0,0,1,.1,3.6L443.36,445a3.31,3.31,0,0,1-.1.66,7.3,7.3,0,0,1-.66,1.47,8.08,8.08,0,0,1-1.34,1.88,7.16,7.16,0,0,1-2.38,1.47,9.57,9.57,0,0,1-3.67.66H417.8a4.72,4.72,0,0,1-.72-.07,10.38,10.38,0,0,1-1.56-.4,7.05,7.05,0,0,1-1.91-.91,3.67,3.67,0,0,1-1.29-1.88,5.88,5.88,0,0,1-.16-3l.19-.87a2.87,2.87,0,0,1,.94-1.66,2.59,2.59,0,0,1,1.76-.66h18.16l1.31-5.89,3.45-1.81h-16.6a8.47,8.47,0,0,1-2.54-.35,4.28,4.28,0,0,1-1.69-.91,5.31,5.31,0,0,1-1-1.22,3.91,3.91,0,0,1-.47-1.31c-.06-.44-.1-.85-.12-1.22a3.86,3.86,0,0,1,0-.88l.06-.38.94-4.38,2-9.77a7.74,7.74,0,0,1,1.37-3.07,6.34,6.34,0,0,1,2.13-1.88,12.72,12.72,0,0,1,2.23-.88,9.6,9.6,0,0,1,1.84-.37h18.17Z" transform="translate(-38.53 -359.92)" fill="#fff"/><path d="M500.35,407.37a3.83,3.83,0,0,1,2.76,1.1,3.56,3.56,0,0,1,1.12,2.66v37.26a2.65,2.65,0,0,1-.81,2,2.78,2.78,0,0,1-2,.78h-7.32a2.91,2.91,0,0,1-2-.78,2.6,2.6,0,0,1-.84-2v-5.07H480.87l-2.82,6.2a2.65,2.65,0,0,1-2.63,1.63H469a2.73,2.73,0,0,1-2.41-1.28,2.44,2.44,0,0,1-.09-2.67l12.71-24.8,5.95-11.65-5.95-3.38Zm-8.83,27.43.44-15.34a.46.46,0,0,0-.41-.47.48.48,0,0,0-.59.28l-3.45,8.08-3.19,7.45Z" transform="translate(-38.53 -359.92)" fill="#fff"/><path d="M543.38,407.31a1.61,1.61,0,0,1,1.31.62,1.52,1.52,0,0,1,.32,1.38l-7.58,35.33a8.41,8.41,0,0,1-1.54,3.41,6.45,6.45,0,0,1-2.38,2,12.91,12.91,0,0,1-2.47.88,8.79,8.79,0,0,1-2,.28l-.82-.06H513.13a9.33,9.33,0,0,1-3.67-.63,3.6,3.6,0,0,1-1.94-1.56,7,7,0,0,1-.63-1.85,3.34,3.34,0,0,1,0-1.53l.12-.69,7.33-34.14-5.76-3.44H523.9a1.61,1.61,0,0,1,1.31.62,1.52,1.52,0,0,1,.32,1.38L520,435,519,439.94l-.37,1.88h8.58l7.14-33.2a1.44,1.44,0,0,1,.31-.69,1.66,1.66,0,0,1,.59-.47,1.79,1.79,0,0,1,.72-.15Z" transform="translate(-38.53 -359.92)" fill="#fff"/><path d="M581.14,407.31a1.4,1.4,0,0,1,.79.22,1.26,1.26,0,0,1,.5.59,1.59,1.59,0,0,1,.09.82l-1.44,6.7a1.18,1.18,0,0,1-1.31,1.06h-8l-.69,2.63-1.75,8.21L564.48,450a1.22,1.22,0,0,1-1.31,1.06h-8.08a1.25,1.25,0,0,1-1-.5,1.28,1.28,0,0,1-.29-1.12l5.2-24.31.13-.62.44-2.19.87-3.95a1.29,1.29,0,0,0-.28-1.13,1.27,1.27,0,0,0-1-.5h-7.45a1.27,1.27,0,0,1-1-.53,1.41,1.41,0,0,1-.28-1.16l.88-4.2-5.77-3.44h7.08a3.07,3.07,0,0,1,.57-.06Z" transform="translate(-38.53 -359.92)" fill="#c90c0f"/><path d="M611.33,407.31a6.56,6.56,0,0,1,.79.06,12,12,0,0,1,1.66.44,7.7,7.7,0,0,1,2.06,1,4.06,4.06,0,0,1,1.41,1.78,4.2,4.2,0,0,1,.16,2.76l-6.7,31.44a8.56,8.56,0,0,1-1,2.76,7,7,0,0,1-1.59,1.88,9.21,9.21,0,0,1-1.82,1.12,7.25,7.25,0,0,1-1.85.6c-.6.1-1.15.18-1.63.22a5.55,5.55,0,0,1-1.16,0l-.43-.07h-15.6a9.1,9.1,0,0,1-3.63-.62,4,4,0,0,1-1.94-1.5,5.27,5.27,0,0,1-.66-1.79,4,4,0,0,1,0-1.53l.12-.63L583.34,427l.06-.07.94-4.63,1.31-6.08.57-2.56a1.07,1.07,0,0,1,.06-.26l.63-2.75-5.64-3.38ZM600.5,441.75l5.32-25h-9.27l-.69,2.82L591,441.75Z" transform="translate(-38.53 -359.92)" fill="#c90c0f"/><path d="M676.78,407.31a1.39,1.39,0,0,1,.78.22,1.28,1.28,0,0,1,.51.59,1.59,1.59,0,0,1,.09.82l-1.44,6.7a1.19,1.19,0,0,1-1.32,1.06h-8l-.69,2.63-1.76,8.21L660.12,450a1.23,1.23,0,0,1-1.31,1.06h-8.08a1.26,1.26,0,0,1-1-.5,1.3,1.3,0,0,1-.28-1.12l5.2-24.31.13-.62.43-2.19.88-3.95a1.33,1.33,0,0,0-.28-1.13,1.29,1.29,0,0,0-1-.5h-7.46a1.25,1.25,0,0,1-1-.53A1.37,1.37,0,0,1,646,415l.87-4.2-5.76-3.44h7.08a3,3,0,0,1,.56-.06Z" transform="translate(-38.53 -359.92)" fill="#c90c0f"/><path d="M711.6,407.31a1.63,1.63,0,0,1,1.32.62,1.52,1.52,0,0,1,.31,1.38l-7.58,35.33a8.39,8.39,0,0,1-1.53,3.41,6.53,6.53,0,0,1-2.38,2,13.16,13.16,0,0,1-2.47.88,8.94,8.94,0,0,1-2,.28l-.81-.06h-15.1a9.31,9.31,0,0,1-3.66-.63,3.6,3.6,0,0,1-1.94-1.56,6.34,6.34,0,0,1-.63-1.85,3.5,3.5,0,0,1,0-1.53l.13-.69,7.33-34.14-5.77-3.44h15.29a1.61,1.61,0,0,1,1.31.62,1.52,1.52,0,0,1,.31,1.38L688.24,435l-1.06,4.95-.38,1.88h8.58l7.14-33.2a1.46,1.46,0,0,1,.32-.69,1.58,1.58,0,0,1,.59-.47,1.79,1.79,0,0,1,.72-.15Z" transform="translate(-38.53 -359.92)" fill="#c90c0f"/><path d="M744.61,407.31c2,0,3.39.45,4,1.34a4.18,4.18,0,0,1,.6,3.35L742,448.71a.61.61,0,0,0-.12.22c0,.1-.14.29-.28.56a3.23,3.23,0,0,1-.54.72,3.29,3.29,0,0,1-.87.6,2.9,2.9,0,0,1-1.25.28h-9.21a1,1,0,0,1-.25,0,3.34,3.34,0,0,1-.53-.25,3.74,3.74,0,0,1-.76-.54,3.33,3.33,0,0,1-.69-1.06,7.78,7.78,0,0,1-.53-1.76c-.17-.75-.39-1.95-.69-3.6l-.84-4.76c-.27-1.52-.52-2.91-.75-4.16s-.37-1.94-.41-2.07l-.38,1.82-2.88,14.53a.55.55,0,0,1-.06.19,4.1,4.1,0,0,1-.34.47,3.1,3.1,0,0,1-.66.59,4.29,4.29,0,0,1-1.16.47,6.5,6.5,0,0,1-1.79.22h-3.19l-.31,0a3.69,3.69,0,0,1-.72-.28,2,2,0,0,1-.82-.66,5.63,5.63,0,0,1-.56-1.13,2.54,2.54,0,0,1,0-1.72l7.27-36.83-5.39-3.19h13.09a2.77,2.77,0,0,1,.5.09,3.51,3.51,0,0,1,.69.25,4.9,4.9,0,0,1,.78.53,4.63,4.63,0,0,1,.85.91,6.86,6.86,0,0,1,.72,1.44,11.45,11.45,0,0,1,.53,2c.17.83.5,2.65,1,5.44s1,5.53,1.47,8.18.87,4.75,1.16,6.29a6.62,6.62,0,0,1,.19,1.13l.38,1.82.31-1.82,4.7-23.61a1.1,1.1,0,0,1,.06-.32,3.27,3.27,0,0,1,.37-.62,3.44,3.44,0,0,1,.79-.78,4.7,4.7,0,0,1,1.44-.63A7.93,7.93,0,0,1,744.61,407.31Z" transform="translate(-38.53 -359.92)" fill="#c90c0f"/><path d="M764.28,407.31a3,3,0,0,1,2.41,1.16,2.81,2.81,0,0,1,.59,2.66l-.75,3.69-2.38,11-4.88,22.93a3.68,3.68,0,0,1-.63,1.25,3.2,3.2,0,0,1-1.06.88,3,3,0,0,1-1.38.31h-4.45a3.14,3.14,0,0,1-3.07-3.82l5.14-24.05.25-.94,1.19-5.58,1.31-6.32-5.26-3.13h13Z" transform="translate(-38.53 -359.92)" fill="#c90c0f"/><path d="M799.35,407.31a7.67,7.67,0,0,1,3.26.62,3.59,3.59,0,0,1,1.78,1.57,6.34,6.34,0,0,1,.63,1.85,5.6,5.6,0,0,1,.09,1.53q-.06.63-.12.63l-.38,1.88a1.63,1.63,0,0,1-.31.72,1.79,1.79,0,0,1-.63.53,1.86,1.86,0,0,1-.81.19H782.13l-1.07,5.51h14.28l.85,0a10.37,10.37,0,0,1,1.85.41,6.39,6.39,0,0,1,2.19,1.06,4.78,4.78,0,0,1,1.41,2.19,6.88,6.88,0,0,1,.09,3.64L798.35,445a3.18,3.18,0,0,1-.09.66,9.57,9.57,0,0,1-.63,1.47,7.09,7.09,0,0,1-1.35,1.88,7.34,7.34,0,0,1-2.41,1.47,9.32,9.32,0,0,1-3.6.66H772.8l-.72,0a7.75,7.75,0,0,1-1.57-.38,6.43,6.43,0,0,1-1.91-.94,3.85,3.85,0,0,1-1.28-1.88,5.69,5.69,0,0,1-.16-3l.19-.88a2.68,2.68,0,0,1,.94-1.63,2.63,2.63,0,0,1,1.75-.63H788.2l1-4.69.68-3.07H776.37a7.35,7.35,0,0,1-3.32-.66,3.63,3.63,0,0,1-1.76-1.57,7.61,7.61,0,0,1-.62-1.81,4.22,4.22,0,0,1-.07-1.6l.07-.62.94-4.39,2-9.83a4.54,4.54,0,0,1,.19-.69l.44-2.13-5.64-3.38h30.75Z" transform="translate(-38.53 -359.92)" fill="#c90c0f"/><path d="M819.14,407.31a3,3,0,0,1,2.41,1.16,2.84,2.84,0,0,1,.6,2.66l-.75,3.69-2.38,11-4.89,22.93a3.49,3.49,0,0,1-.62,1.25,3.24,3.24,0,0,1-1.07.88,3,3,0,0,1-1.38.31h-4.44a3,3,0,0,1-2.45-1.16,3.05,3.05,0,0,1-.62-2.66l5.13-24.05.25-.94,1.19-5.58,1.32-6.32-5.26-3.13h13Z" transform="translate(-38.53 -359.92)" fill="#c90c0f"/><path d="M859.79,407.37a1.65,1.65,0,0,1,1.29.63,1.58,1.58,0,0,1,.34,1.44l-1.25,6a1.65,1.65,0,0,1-.6,1,1.7,1.7,0,0,1-1.09.38H839.12l-.37,1.75v.06l-.82,3.76h13.78A1.62,1.62,0,0,1,853,423a1.51,1.51,0,0,1,.31,1.38l-1.57,8.33a1.66,1.66,0,0,1-.59,1,1.61,1.61,0,0,1-1,.37H835.3l-.37,1.82-1.32,5.95h18.85a1.61,1.61,0,0,1,1.32.63,1.49,1.49,0,0,1,.31,1.37l-1.25,5.95a1.62,1.62,0,0,1-.6.94,1.6,1.6,0,0,1-1,.38H830.86a7.74,7.74,0,0,1-6.27-3,7.57,7.57,0,0,1-1.63-6.73L826.91,423l1.69-7.89a4.13,4.13,0,0,1,.19-.75l.69-3.38-6-3.57h14v.06a2.86,2.86,0,0,1,.51-.06Z" transform="translate(-38.53 -359.92)" fill="#c90c0f"/><path d="M232.38,477.33a40.93,40.93,0,0,1-3.69,4.94l-1.69,2-10.52-3.72a31.35,31.35,0,0,1-6.25,3.61l-.63,3.39c2.78,7,5.18,13.87,7.1,20.43a268.62,268.62,0,0,1-48.51,6.77c-5.83.3-11.69.46-17.4.46s-11.57-.16-17.4-.46a268.49,268.49,0,0,1-48.51-6.77,243.21,243.21,0,0,1,9.25-25.69l-3.31-3.31a7.64,7.64,0,0,0-5.33-2.3,6.21,6.21,0,0,0-1.29.13,39.28,39.28,0,0,1-14.81.09c-7,17.4-11.69,33.8-13.82,48,19.79,7.78,46.49,13.14,76.5,14.73,6.12.32,12.36.5,18.72.5s12.6-.18,18.71-.5c30-1.59,56.72-7,76.51-14.73C243.9,510.77,239.28,494.55,232.38,477.33Z" transform="translate(-38.53 -359.92)" fill="#fff"/><path d="M225.28,455.49a27,27,0,0,0-.5-5.12l8.12-6.95a36.89,36.89,0,0,0-7.07-12.23l-10.07,3.56a27.34,27.34,0,0,0-8.87-5.12l-1.95-10.51a37,37,0,0,0-14.13,0l-2,10.51a27.4,27.4,0,0,0-8.86,5.12l-10.08-3.56a37.24,37.24,0,0,0-7.07,12.23l8.12,6.95a27,27,0,0,0,0,10.24l-8.12,6.95a37.24,37.24,0,0,0,7.07,12.23L180,476.23a27.37,27.37,0,0,0,8.86,5.11l2,10.52a37,37,0,0,0,14.13,0l1.95-10.52a27.31,27.31,0,0,0,8.87-5.11l10.07,3.56a36.89,36.89,0,0,0,7.07-12.23l-8.12-6.95A27,27,0,0,0,225.28,455.49Zm-27.41,14.92a14.92,14.92,0,1,1,14.92-14.92A14.92,14.92,0,0,1,197.87,470.41Z" transform="translate(-38.53 -359.92)" fill="#fff"/><path d="M112.53,402.54l-.85-.82c12.95-17.39,26.42-31.69,39.11-41.8v28.77h-9.88l-10.33,17.89,3.76,6.5c-3.55,4.62-7.06,9.46-10.48,14.52A38.94,38.94,0,0,0,112.53,402.54ZM168.19,514.7c-5.83.3-11.69.46-17.4.46s-11.57-.16-17.4-.46a268.49,268.49,0,0,1-48.51-6.77,243.21,243.21,0,0,1,9.25-25.69l-3.31-3.31a7.64,7.64,0,0,0-5.33-2.3,6.21,6.21,0,0,0-1.29.13,39.28,39.28,0,0,1-14.81.09c-7,17.4-11.69,33.8-13.82,48a.11.11,0,0,1,0-.05,245.11,245.11,0,0,0,59.26,7c40.86,0,77.43-9.27,101.86-23.86l0,0A268.39,268.39,0,0,1,168.19,514.7Z" transform="translate(-38.53 -359.92)" fill="url(#d)"/><polygon points="120.84 32.56 128.97 46.65 120.84 60.75 104.56 60.75 96.43 46.65 104.56 32.56 120.84 32.56" fill="#fff"/><g mask="url(#e)"><path d="M229,481.87c-.12.13-.22.27-.34.4l-1.69,2-10.52-3.72a31.35,31.35,0,0,1-6.25,3.61l-.63,3.39c2.78,7,5.18,13.87,7.1,20.43a268.62,268.62,0,0,1-48.51,6.77c-5.83.3-11.69.46-17.4.46s-11.57-.16-17.4-.46a268.49,268.49,0,0,1-48.51-6.77,243.21,243.21,0,0,1,9.25-25.69l-3.31-3.31a7.64,7.64,0,0,0-5.33-2.3,6.21,6.21,0,0,0-1.29.13,39.31,39.31,0,0,1-7.66.75l-1.32,0c-6.49,16-10.82,31-12.8,44.12,18.46,7.18,43.37,12.13,71.38,13.6,5.7.3,11.53.46,17.46.46s11.75-.16,17.46-.46c28-1.47,52.91-6.42,71.37-13.6C238.3,509.73,234.56,496.22,229,481.87Z" transform="translate(-38.53 -359.92)" fill="url(#g)"/></g><path d="M76.54,473a35,35,0,0,0,6.77-.67,10.75,10.75,0,0,1,2.18-.22,12.2,12.2,0,0,1,8.56,3.64l34.09,34.09c1.83.13,3.66.25,5.51.35,4.67.25,9.35.39,14,.44l-37.95-37.95a6.65,6.65,0,0,1,9.4-9.4l47,47,2.36-.11q7.67-.4,15-1.18l-61.34-61.35a12,12,0,0,1-3.43-10.73,34.38,34.38,0,0,0-9.41-31.11c-13-13-26.45-13.2-37.07-13.67h-.09A1.66,1.66,0,0,0,71,394.94l18.31,18.28a5.7,5.7,0,0,1,1.63,4.68L88.5,438.52A5.71,5.71,0,0,1,85.25,443l-13.72,6.38a5.7,5.7,0,0,1-6.42-1.13L41.37,424.54a1.64,1.64,0,0,0-1.17-.49,1.67,1.67,0,0,0-1.67,1.74c.48,10.62.63,24,13.68,37.08A34.29,34.29,0,0,0,76.54,473Z" transform="translate(-38.53 -359.92)" fill="#fff"/><path d="M150.79,359.92v28.77h10.77l10.32,17.89-4.13,7.15c4,5.24,7.93,10.79,11.76,16.57a31.25,31.25,0,0,1,6-3.43l2.05-11,2.53-.49a40.93,40.93,0,0,1,7.78-.75c.39,0,.79,0,1.18,0C183.42,391.38,166.5,372.44,150.79,359.92Z" transform="translate(-38.53 -359.92)" fill="#fff"/></svg>